<mxfile host="app.diagrams.net" modified="2023-12-29T04:37:27.932Z" agent="Mozilla/5.0 (Windows NT 10.0; Win64; x64) AppleWebKit/537.36 (KHTML, like Gecko) Chrome/120.0.0.0 Safari/537.36" etag="1BRyp6TRI7YgHiq5GSK6" version="22.1.15" type="device">
  <diagram name="Page-1" id="nNaXFE6UuhxSOhcQHOiA">
    <mxGraphModel dx="1235" dy="709" grid="1" gridSize="10" guides="1" tooltips="1" connect="1" arrows="1" fold="1" page="1" pageScale="1" pageWidth="2339" pageHeight="3300" math="0" shadow="0">
      <root>
        <mxCell id="0" />
        <mxCell id="1" parent="0" />
        <mxCell id="r14qWyaG-oIi58SLhgSC-1" value="&lt;font style=&quot;font-size: 14px;&quot;&gt;production&amp;nbsp;&lt;/font&gt;" style="rounded=0;whiteSpace=wrap;html=1;" vertex="1" parent="1">
          <mxGeometry x="600" y="540" width="120" height="60" as="geometry" />
        </mxCell>
        <mxCell id="r14qWyaG-oIi58SLhgSC-2" value="&lt;font style=&quot;font-size: 14px;&quot;&gt;request&amp;nbsp;&lt;/font&gt;" style="rhombus;whiteSpace=wrap;html=1;" vertex="1" parent="1">
          <mxGeometry x="420" y="570" width="80" height="80" as="geometry" />
        </mxCell>
        <mxCell id="r14qWyaG-oIi58SLhgSC-3" value="&lt;font style=&quot;font-size: 14px;&quot;&gt;use&amp;nbsp;&lt;/font&gt;" style="rhombus;whiteSpace=wrap;html=1;" vertex="1" parent="1">
          <mxGeometry x="870" y="480" width="80" height="80" as="geometry" />
        </mxCell>
        <mxCell id="r14qWyaG-oIi58SLhgSC-4" value="&lt;font style=&quot;font-size: 14px;&quot;&gt;use&amp;nbsp;&lt;/font&gt;" style="rhombus;whiteSpace=wrap;html=1;" vertex="1" parent="1">
          <mxGeometry x="500" y="700" width="80" height="80" as="geometry" />
        </mxCell>
        <mxCell id="r14qWyaG-oIi58SLhgSC-5" value="&lt;font style=&quot;font-size: 14px;&quot;&gt;Property&amp;nbsp;&lt;/font&gt;" style="rounded=0;whiteSpace=wrap;html=1;" vertex="1" parent="1">
          <mxGeometry x="180" y="710" width="120" height="60" as="geometry" />
        </mxCell>
        <mxCell id="r14qWyaG-oIi58SLhgSC-6" value="&lt;font style=&quot;font-size: 14px;&quot;&gt;assign&amp;nbsp;&lt;/font&gt;" style="rhombus;whiteSpace=wrap;html=1;" vertex="1" parent="1">
          <mxGeometry x="720" y="735" width="80" height="80" as="geometry" />
        </mxCell>
        <mxCell id="r14qWyaG-oIi58SLhgSC-7" value="&lt;font style=&quot;font-size: 14px;&quot;&gt;staff&amp;nbsp;&lt;/font&gt;" style="rounded=0;whiteSpace=wrap;html=1;" vertex="1" parent="1">
          <mxGeometry x="900" y="720" width="120" height="60" as="geometry" />
        </mxCell>
        <mxCell id="r14qWyaG-oIi58SLhgSC-8" value="&lt;font style=&quot;font-size: 14px;&quot;&gt;Client&amp;nbsp;&lt;/font&gt;" style="rounded=0;whiteSpace=wrap;html=1;" vertex="1" parent="1">
          <mxGeometry x="310" y="390" width="120" height="60" as="geometry" />
        </mxCell>
        <mxCell id="r14qWyaG-oIi58SLhgSC-9" value="&lt;font style=&quot;font-size: 14px;&quot;&gt;location&amp;nbsp;&lt;/font&gt;" style="rounded=0;whiteSpace=wrap;html=1;" vertex="1" parent="1">
          <mxGeometry x="790" y="310" width="120" height="60" as="geometry" />
        </mxCell>
        <mxCell id="r14qWyaG-oIi58SLhgSC-10" value="&lt;font style=&quot;font-size: 14px;&quot;&gt;use_in&lt;/font&gt;" style="rhombus;whiteSpace=wrap;html=1;" vertex="1" parent="1">
          <mxGeometry x="130" y="300" width="80" height="80" as="geometry" />
        </mxCell>
        <mxCell id="76Yf3EKvh-bGM8seMWfV-15" value="" style="edgeStyle=entityRelationEdgeStyle;fontSize=12;html=1;endArrow=ERmany;rounded=0;entryX=1;entryY=0.5;entryDx=0;entryDy=0;" edge="1" parent="1" source="r14qWyaG-oIi58SLhgSC-4" target="r14qWyaG-oIi58SLhgSC-5">
          <mxGeometry width="100" height="100" relative="1" as="geometry">
            <mxPoint x="590" y="720" as="sourcePoint" />
            <mxPoint x="690" y="620" as="targetPoint" />
            <Array as="points">
              <mxPoint x="640" y="830" />
            </Array>
          </mxGeometry>
        </mxCell>
        <mxCell id="76Yf3EKvh-bGM8seMWfV-21" value="" style="edgeStyle=entityRelationEdgeStyle;fontSize=12;html=1;endArrow=ERmany;rounded=0;exitX=0.5;exitY=1;exitDx=0;exitDy=0;entryX=0;entryY=0.5;entryDx=0;entryDy=0;" edge="1" parent="1" source="r14qWyaG-oIi58SLhgSC-10" target="r14qWyaG-oIi58SLhgSC-5">
          <mxGeometry width="100" height="100" relative="1" as="geometry">
            <mxPoint x="590" y="670" as="sourcePoint" />
            <mxPoint x="310" y="890" as="targetPoint" />
            <Array as="points">
              <mxPoint x="310" y="450" />
              <mxPoint x="290" y="550" />
              <mxPoint x="300" y="630" />
            </Array>
          </mxGeometry>
        </mxCell>
        <mxCell id="76Yf3EKvh-bGM8seMWfV-22" value="" style="edgeStyle=entityRelationEdgeStyle;fontSize=12;html=1;endArrow=ERmany;rounded=0;entryX=0;entryY=0.5;entryDx=0;entryDy=0;exitX=1;exitY=0.5;exitDx=0;exitDy=0;" edge="1" parent="1" source="r14qWyaG-oIi58SLhgSC-10" target="r14qWyaG-oIi58SLhgSC-9">
          <mxGeometry width="100" height="100" relative="1" as="geometry">
            <mxPoint x="510" y="750" as="sourcePoint" />
            <mxPoint x="440" y="900" as="targetPoint" />
            <Array as="points">
              <mxPoint x="650" y="840" />
            </Array>
          </mxGeometry>
        </mxCell>
        <mxCell id="76Yf3EKvh-bGM8seMWfV-24" value="" style="edgeStyle=entityRelationEdgeStyle;fontSize=12;html=1;endArrow=ERmany;rounded=0;exitX=0.5;exitY=0;exitDx=0;exitDy=0;entryX=1;entryY=0.5;entryDx=0;entryDy=0;" edge="1" parent="1" source="r14qWyaG-oIi58SLhgSC-3" target="r14qWyaG-oIi58SLhgSC-9">
          <mxGeometry width="100" height="100" relative="1" as="geometry">
            <mxPoint x="780" y="350" as="sourcePoint" />
            <mxPoint x="800" y="330" as="targetPoint" />
            <Array as="points">
              <mxPoint x="190" y="520" />
              <mxPoint x="170" y="620" />
            </Array>
          </mxGeometry>
        </mxCell>
        <mxCell id="76Yf3EKvh-bGM8seMWfV-25" value="" style="edgeStyle=entityRelationEdgeStyle;fontSize=12;html=1;endArrow=ERmany;rounded=0;entryX=1;entryY=0.25;entryDx=0;entryDy=0;" edge="1" parent="1" source="r14qWyaG-oIi58SLhgSC-3" target="r14qWyaG-oIi58SLhgSC-1">
          <mxGeometry width="100" height="100" relative="1" as="geometry">
            <mxPoint x="920" y="490" as="sourcePoint" />
            <mxPoint x="920" y="350" as="targetPoint" />
            <Array as="points">
              <mxPoint x="200" y="530" />
              <mxPoint x="180" y="630" />
            </Array>
          </mxGeometry>
        </mxCell>
        <mxCell id="76Yf3EKvh-bGM8seMWfV-26" value="" style="edgeStyle=entityRelationEdgeStyle;fontSize=12;html=1;endArrow=ERmany;rounded=0;entryX=1;entryY=0.75;entryDx=0;entryDy=0;exitX=0.5;exitY=0;exitDx=0;exitDy=0;" edge="1" parent="1" source="r14qWyaG-oIi58SLhgSC-6" target="r14qWyaG-oIi58SLhgSC-1">
          <mxGeometry width="100" height="100" relative="1" as="geometry">
            <mxPoint x="880" y="530" as="sourcePoint" />
            <mxPoint x="704" y="605" as="targetPoint" />
            <Array as="points">
              <mxPoint x="210" y="540" />
              <mxPoint x="190" y="640" />
            </Array>
          </mxGeometry>
        </mxCell>
        <mxCell id="76Yf3EKvh-bGM8seMWfV-27" value="" style="edgeStyle=entityRelationEdgeStyle;fontSize=12;html=1;endArrow=ERmany;rounded=0;entryX=0;entryY=0.5;entryDx=0;entryDy=0;exitX=1;exitY=0.5;exitDx=0;exitDy=0;" edge="1" parent="1" source="r14qWyaG-oIi58SLhgSC-6" target="r14qWyaG-oIi58SLhgSC-7">
          <mxGeometry width="100" height="100" relative="1" as="geometry">
            <mxPoint x="890" y="540" as="sourcePoint" />
            <mxPoint x="714" y="615" as="targetPoint" />
            <Array as="points">
              <mxPoint x="220" y="550" />
              <mxPoint x="200" y="650" />
            </Array>
          </mxGeometry>
        </mxCell>
        <mxCell id="76Yf3EKvh-bGM8seMWfV-33" value="" style="edgeStyle=entityRelationEdgeStyle;fontSize=12;html=1;endArrow=ERone;endFill=1;rounded=0;entryX=1;entryY=0.5;entryDx=0;entryDy=0;exitX=0.5;exitY=0;exitDx=0;exitDy=0;" edge="1" parent="1" source="r14qWyaG-oIi58SLhgSC-2" target="r14qWyaG-oIi58SLhgSC-8">
          <mxGeometry width="100" height="100" relative="1" as="geometry">
            <mxPoint x="580" y="680" as="sourcePoint" />
            <mxPoint x="680" y="580" as="targetPoint" />
          </mxGeometry>
        </mxCell>
        <mxCell id="76Yf3EKvh-bGM8seMWfV-34" value="" style="edgeStyle=entityRelationEdgeStyle;fontSize=12;html=1;endArrow=ERmany;rounded=0;entryX=0;entryY=0.75;entryDx=0;entryDy=0;exitX=1;exitY=0.5;exitDx=0;exitDy=0;" edge="1" parent="1" source="r14qWyaG-oIi58SLhgSC-4" target="r14qWyaG-oIi58SLhgSC-1">
          <mxGeometry width="100" height="100" relative="1" as="geometry">
            <mxPoint x="510" y="750" as="sourcePoint" />
            <mxPoint x="310" y="750" as="targetPoint" />
            <Array as="points">
              <mxPoint x="650" y="840" />
              <mxPoint x="410" y="810" />
            </Array>
          </mxGeometry>
        </mxCell>
        <mxCell id="76Yf3EKvh-bGM8seMWfV-35" value="" style="edgeStyle=entityRelationEdgeStyle;fontSize=12;html=1;endArrow=ERmany;rounded=0;entryX=0;entryY=0.25;entryDx=0;entryDy=0;exitX=1;exitY=0.5;exitDx=0;exitDy=0;" edge="1" parent="1" source="r14qWyaG-oIi58SLhgSC-2" target="r14qWyaG-oIi58SLhgSC-1">
          <mxGeometry width="100" height="100" relative="1" as="geometry">
            <mxPoint x="590" y="750" as="sourcePoint" />
            <mxPoint x="610" y="580" as="targetPoint" />
            <Array as="points">
              <mxPoint x="660" y="850" />
              <mxPoint x="420" y="820" />
            </Array>
          </mxGeometry>
        </mxCell>
      </root>
    </mxGraphModel>
  </diagram>
</mxfile>
